<mxfile host="app.diagrams.net" modified="2024-04-04T12:16:05.842Z" agent="Mozilla/5.0 (Windows NT 10.0; Win64; x64) AppleWebKit/537.36 (KHTML, like Gecko) Chrome/123.0.0.0 Safari/537.36" version="21.5.0" etag="AGY-kYztDSMV8Wx6Qw6t" type="github">
  <diagram name="第 1 页" id="BAEqdCWQw54gjPH0KH8Y">
    <mxGraphModel>
      <root>
        <mxCell id="0" />
        <mxCell id="1" parent="0" />
      </root>
    </mxGraphModel>
  </diagram>
</mxfile>
